<svg xmlns="http://www.w3.org/2000/svg" version="1.1" xmlns:xlink="http://www.w3.org/1999/xlink" xmlns:svgjs="http://svgjs.dev/svgjs" viewBox="0 0 600 600"><path d="M96.47058868408203,209.05636596679688C101.56862767537434,190.62499237060547,108.235289255778,169.0563710530599,129.41175842285156,159.6446075439453C150.58822758992514,150.23284403483072,196.07842254638672,154.54656982421875,223.52940368652344,152.58578491210938C250.98038482666016,150.625,271.37254587809247,150.6249974568685,294.1176452636719,147.87989807128906C316.8627446492513,145.13479868570963,330.1960805257161,131.40930684407553,360,136.1151885986328C389.8039194742839,140.8210703531901,445.0980224609375,146.70342254638672,472.941162109375,176.1151885986328C500.7843017578125,205.5269546508789,533.7255045572916,289.44852956136066,527.058837890625,312.5857849121094C520.3921712239584,335.7230402628581,461.56861877441406,309.0563710530599,432.941162109375,314.938720703125C404.31370544433594,320.8210703531901,376.47056579589844,343.566157023112,355.2940979003906,347.8798828125C334.1176300048828,352.193608601888,321.1764678955078,346.70342508951825,305.8823547363281,340.8210754394531C290.58824157714844,334.938725789388,283.5294189453125,308.6642150878906,263.5294189453125,312.5857849121094C243.5294189453125,316.5073547363281,207.45098368326822,362.38970947265625,185.88235473632812,364.3504943847656C164.31372578938803,366.311279296875,148.6274503072103,340.0367685953776,134.11764526367188,324.3504943847656C119.60784022013347,308.6642201741536,105.0980339050293,289.4485371907552,98.82352447509766,270.23284912109375C92.54901504516602,251.01716105143228,91.37254969278972,227.48773956298828,96.47058868408203,209.05636596679688C101.56862767537434,190.62499237060547,108.235289255778,169.0563710530599,129.41175842285156,159.6446075439453" fill="url(&quot;#SvgjsLinearGradient1000&quot;)"></path><defs><linearGradient id="SvgjsLinearGradient1000"><stop stop-color="hsl(180, 69%, 40%)" offset="0"></stop><stop stop-color="hsl(180, 69%, 60%)" offset="1"></stop></linearGradient></defs></svg>