<svg xmlns="http://www.w3.org/2000/svg" version="1.1" xmlns:xlink="http://www.w3.org/1999/xlink" xmlns:svgjs="http://svgjs.dev/svgjs" viewBox="0 0 800 400"><path d="M291.4798278808594,213.45291137695312C275.9342346191406,198.5052286783854,260.9865468343099,205.68011728922525,244.84304809570312,168.60986328125C228.69954935709634,131.53960927327475,226.30792744954428,133.3333282470703,243.04933166503906,102.24214935302734C259.7907358805339,71.15097045898438,255.60538228352866,84.90284220377605,295.0672607421875,75.3363265991211C334.5291392008464,65.76981099446614,311.21075439453125,65.17190043131511,361.4349670410156,73.5426025390625C411.6591796875,81.91330464680989,414.0508117675781,75.3363265991211,445.7398986816406,100.44843292236328C477.4289855957031,125.56053924560547,455.90431722005206,115.994021097819,456.5022277832031,148.87892150878906C457.1001383463542,181.76382191975912,464.87293497721356,173.99102783203125,447.53363037109375,199.10313415527344C430.19432576497394,224.21524047851562,435.5754903157552,214.05081685384116,404.48431396484375,224.21524047851562C373.3931376139323,234.3796641031901,383.5575663248698,226.60686747233072,354.2601013183594,229.59640502929688C324.96263631184894,232.58594258626303,347.68310546875,230.1943155924479,316.5919189453125,233.18385314941406C285.500732421875,236.17339070638022,279.52166748046875,236.77129618326822,260.9865417480469,238.5650177001953" fill="none" stroke-width="17" stroke="url(&quot;#SvgjsLinearGradient1001&quot;)" stroke-linecap="round" stroke-dasharray="16 46"></path><defs><linearGradient id="SvgjsLinearGradient1001"><stop stop-color="hsl(180, 69%, 40%)" offset="0"></stop><stop stop-color="hsl(180, 69%, 60%)" offset="1"></stop></linearGradient></defs></svg>